<?xml version="1.0" encoding="UTF-8" standalone="no"?><svg xmlns="http://www.w3.org/2000/svg" xmlns:xlink="http://www.w3.org/1999/xlink" contentStyleType="text/css" height="1944px" preserveAspectRatio="none" style="width:1603px;height:1944px;background:#FFFFFF;" version="1.1" viewBox="0 0 1603 1944" width="1603px" zoomAndPan="magnify"><defs/><g><rect height="33.2813" style="stroke:#00000000;stroke-width:1.0;fill:none;" width="270" x="665" y="10"/><text fill="#000000" font-family="sans-serif" font-size="20" font-weight="bold" lengthAdjust="spacing" textLength="260" x="670" y="33.5645">招租公告新增-详细处理逻辑</text><rect fill="#DDDDDD" height="1888.375" style="stroke:#181818;stroke-width:0.5;" width="250" x="151" y="50.2813"/><text fill="#000000" font-family="sans-serif" font-size="13" font-weight="bold" lengthAdjust="spacing" textLength="56" x="248" y="62.3481">前端页面</text><rect fill="#DDDDDD" height="1888.375" style="stroke:#181818;stroke-width:0.5;" width="759" x="403" y="50.2813"/><text fill="#000000" font-family="sans-serif" font-size="13" font-weight="bold" lengthAdjust="spacing" textLength="40" x="762.5" y="62.3481">js编程</text><rect fill="#DDDDDD" height="1888.375" style="stroke:#181818;stroke-width:0.5;" width="347" x="1164" y="50.2813"/><text fill="#000000" font-family="sans-serif" font-size="13" font-weight="bold" lengthAdjust="spacing" textLength="56" x="1309.5" y="62.3481">后端服务</text><line style="stroke:#181818;stroke-width:0.5;stroke-dasharray:5.0,5.0;" x1="22" x2="22" y1="125.5781" y2="1645.0234"/><line style="stroke:#A80036;stroke-width:1.0;stroke-dasharray:1.0,4.0;" x1="22" x2="22" y1="1645.0234" y2="1685.8281"/><line style="stroke:#181818;stroke-width:0.5;stroke-dasharray:5.0,5.0;" x1="22" x2="22" y1="1685.8281" y2="1859.3594"/><line style="stroke:#181818;stroke-width:0.5;stroke-dasharray:5.0,5.0;" x1="190" x2="190" y1="125.5781" y2="1645.0234"/><line style="stroke:#A80036;stroke-width:1.0;stroke-dasharray:1.0,4.0;" x1="190" x2="190" y1="1645.0234" y2="1685.8281"/><line style="stroke:#181818;stroke-width:0.5;stroke-dasharray:5.0,5.0;" x1="190" x2="190" y1="1685.8281" y2="1859.3594"/><line style="stroke:#181818;stroke-width:0.5;stroke-dasharray:5.0,5.0;" x1="270" x2="270" y1="125.5781" y2="1645.0234"/><line style="stroke:#A80036;stroke-width:1.0;stroke-dasharray:1.0,4.0;" x1="270" x2="270" y1="1645.0234" y2="1685.8281"/><line style="stroke:#181818;stroke-width:0.5;stroke-dasharray:5.0,5.0;" x1="270" x2="270" y1="1685.8281" y2="1859.3594"/><line style="stroke:#181818;stroke-width:0.5;stroke-dasharray:5.0,5.0;" x1="362" x2="362" y1="125.5781" y2="1645.0234"/><line style="stroke:#A80036;stroke-width:1.0;stroke-dasharray:1.0,4.0;" x1="362" x2="362" y1="1645.0234" y2="1685.8281"/><line style="stroke:#181818;stroke-width:0.5;stroke-dasharray:5.0,5.0;" x1="362" x2="362" y1="1685.8281" y2="1859.3594"/><line style="stroke:#181818;stroke-width:0.5;stroke-dasharray:5.0,5.0;" x1="456" x2="456" y1="125.5781" y2="1645.0234"/><line style="stroke:#A80036;stroke-width:1.0;stroke-dasharray:1.0,4.0;" x1="456" x2="456" y1="1645.0234" y2="1685.8281"/><line style="stroke:#181818;stroke-width:0.5;stroke-dasharray:5.0,5.0;" x1="456" x2="456" y1="1685.8281" y2="1859.3594"/><line style="stroke:#181818;stroke-width:0.5;stroke-dasharray:5.0,5.0;" x1="564" x2="564" y1="125.5781" y2="1645.0234"/><line style="stroke:#A80036;stroke-width:1.0;stroke-dasharray:1.0,4.0;" x1="564" x2="564" y1="1645.0234" y2="1685.8281"/><line style="stroke:#181818;stroke-width:0.5;stroke-dasharray:5.0,5.0;" x1="564" x2="564" y1="1685.8281" y2="1859.3594"/><line style="stroke:#181818;stroke-width:0.5;stroke-dasharray:5.0,5.0;" x1="693" x2="693" y1="125.5781" y2="1645.0234"/><line style="stroke:#A80036;stroke-width:1.0;stroke-dasharray:1.0,4.0;" x1="693" x2="693" y1="1645.0234" y2="1685.8281"/><line style="stroke:#181818;stroke-width:0.5;stroke-dasharray:5.0,5.0;" x1="693" x2="693" y1="1685.8281" y2="1859.3594"/><line style="stroke:#181818;stroke-width:0.5;stroke-dasharray:5.0,5.0;" x1="822" x2="822" y1="125.5781" y2="1645.0234"/><line style="stroke:#A80036;stroke-width:1.0;stroke-dasharray:1.0,4.0;" x1="822" x2="822" y1="1645.0234" y2="1685.8281"/><line style="stroke:#181818;stroke-width:0.5;stroke-dasharray:5.0,5.0;" x1="822" x2="822" y1="1685.8281" y2="1859.3594"/><line style="stroke:#181818;stroke-width:0.5;stroke-dasharray:5.0,5.0;" x1="944" x2="944" y1="125.5781" y2="1645.0234"/><line style="stroke:#A80036;stroke-width:1.0;stroke-dasharray:1.0,4.0;" x1="944" x2="944" y1="1645.0234" y2="1685.8281"/><line style="stroke:#181818;stroke-width:0.5;stroke-dasharray:5.0,5.0;" x1="944" x2="944" y1="1685.8281" y2="1859.3594"/><line style="stroke:#181818;stroke-width:0.5;stroke-dasharray:5.0,5.0;" x1="1088" x2="1088" y1="125.5781" y2="1645.0234"/><line style="stroke:#A80036;stroke-width:1.0;stroke-dasharray:1.0,4.0;" x1="1088" x2="1088" y1="1645.0234" y2="1685.8281"/><line style="stroke:#181818;stroke-width:0.5;stroke-dasharray:5.0,5.0;" x1="1088" x2="1088" y1="1685.8281" y2="1859.3594"/><line style="stroke:#181818;stroke-width:0.5;stroke-dasharray:5.0,5.0;" x1="1203" x2="1203" y1="125.5781" y2="1645.0234"/><line style="stroke:#A80036;stroke-width:1.0;stroke-dasharray:1.0,4.0;" x1="1203" x2="1203" y1="1645.0234" y2="1685.8281"/><line style="stroke:#181818;stroke-width:0.5;stroke-dasharray:5.0,5.0;" x1="1203" x2="1203" y1="1685.8281" y2="1859.3594"/><line style="stroke:#181818;stroke-width:0.5;stroke-dasharray:5.0,5.0;" x1="1344" x2="1344" y1="125.5781" y2="1645.0234"/><line style="stroke:#A80036;stroke-width:1.0;stroke-dasharray:1.0,4.0;" x1="1344" x2="1344" y1="1645.0234" y2="1685.8281"/><line style="stroke:#181818;stroke-width:0.5;stroke-dasharray:5.0,5.0;" x1="1344" x2="1344" y1="1685.8281" y2="1859.3594"/><line style="stroke:#181818;stroke-width:0.5;stroke-dasharray:5.0,5.0;" x1="1465" x2="1465" y1="125.5781" y2="1645.0234"/><line style="stroke:#A80036;stroke-width:1.0;stroke-dasharray:1.0,4.0;" x1="1465" x2="1465" y1="1645.0234" y2="1685.8281"/><line style="stroke:#181818;stroke-width:0.5;stroke-dasharray:5.0,5.0;" x1="1465" x2="1465" y1="1685.8281" y2="1859.3594"/><text fill="#000000" font-family="sans-serif" font-size="14" lengthAdjust="spacing" textLength="28" x="5" y="122.2764">用户</text><ellipse cx="22" cy="57.7813" fill="#E2E2F0" rx="8" ry="8" style="stroke:#181818;stroke-width:0.5;"/><path d="M22,65.7813 L22,92.7813 M9,73.7813 L35,73.7813 M22,92.7813 L9,107.7813 M22,92.7813 L35,107.7813 " fill="none" style="stroke:#181818;stroke-width:0.5;"/><text fill="#000000" font-family="sans-serif" font-size="14" lengthAdjust="spacing" textLength="28" x="5" y="1871.3545">用户</text><ellipse cx="22" cy="1883.1563" fill="#E2E2F0" rx="8" ry="8" style="stroke:#181818;stroke-width:0.5;"/><path d="M22,1891.1563 L22,1918.1563 M9,1899.1563 L35,1899.1563 M22,1918.1563 L9,1933.1563 M22,1918.1563 L35,1933.1563 " fill="none" style="stroke:#181818;stroke-width:0.5;"/><rect fill="#E2E2F0" height="30.2969" rx="2.5" ry="2.5" style="stroke:#181818;stroke-width:0.5;" width="70" x="155" y="94.2813"/><text fill="#000000" font-family="sans-serif" font-size="14" lengthAdjust="spacing" textLength="56" x="162" y="114.2764">表格页面</text><rect fill="#E2E2F0" height="30.2969" rx="2.5" ry="2.5" style="stroke:#181818;stroke-width:0.5;" width="70" x="155" y="1858.3594"/><text fill="#000000" font-family="sans-serif" font-size="14" lengthAdjust="spacing" textLength="56" x="162" y="1878.3545">表格页面</text><rect fill="#E2E2F0" height="30.2969" rx="2.5" ry="2.5" style="stroke:#181818;stroke-width:0.5;" width="70" x="235" y="94.2813"/><text fill="#000000" font-family="sans-serif" font-size="14" lengthAdjust="spacing" textLength="56" x="242" y="114.2764">表单页面</text><rect fill="#E2E2F0" height="30.2969" rx="2.5" ry="2.5" style="stroke:#181818;stroke-width:0.5;" width="70" x="235" y="1858.3594"/><text fill="#000000" font-family="sans-serif" font-size="14" lengthAdjust="spacing" textLength="56" x="242" y="1878.3545">表单页面</text><rect fill="#E2E2F0" height="30.2969" rx="2.5" ry="2.5" style="stroke:#181818;stroke-width:0.5;" width="70" x="327" y="94.2813"/><text fill="#000000" font-family="sans-serif" font-size="14" lengthAdjust="spacing" textLength="56" x="334" y="114.2764">流程页面</text><rect fill="#E2E2F0" height="30.2969" rx="2.5" ry="2.5" style="stroke:#181818;stroke-width:0.5;" width="70" x="327" y="1858.3594"/><text fill="#000000" font-family="sans-serif" font-size="14" lengthAdjust="spacing" textLength="56" x="334" y="1878.3545">流程页面</text><rect fill="#E2E2F0" height="30.2969" rx="2.5" ry="2.5" style="stroke:#181818;stroke-width:0.5;" width="98" x="407" y="94.2813"/><text fill="#000000" font-family="sans-serif" font-size="14" lengthAdjust="spacing" textLength="84" x="414" y="114.2764">新增挂牌信息</text><rect fill="#E2E2F0" height="30.2969" rx="2.5" ry="2.5" style="stroke:#181818;stroke-width:0.5;" width="98" x="407" y="1858.3594"/><text fill="#000000" font-family="sans-serif" font-size="14" lengthAdjust="spacing" textLength="84" x="414" y="1878.3545">新增挂牌信息</text><rect fill="#E2E2F0" height="30.2969" rx="2.5" ry="2.5" style="stroke:#181818;stroke-width:0.5;" width="98" x="515" y="94.2813"/><text fill="#000000" font-family="sans-serif" font-size="14" lengthAdjust="spacing" textLength="84" x="522" y="114.2764">表单提交流程</text><rect fill="#E2E2F0" height="30.2969" rx="2.5" ry="2.5" style="stroke:#181818;stroke-width:0.5;" width="98" x="515" y="1858.3594"/><text fill="#000000" font-family="sans-serif" font-size="14" lengthAdjust="spacing" textLength="84" x="522" y="1878.3545">表单提交流程</text><rect fill="#E2E2F0" height="30.2969" rx="2.5" ry="2.5" style="stroke:#181818;stroke-width:0.5;" width="140" x="623" y="94.2813"/><text fill="#000000" font-family="sans-serif" font-size="14" lengthAdjust="spacing" textLength="126" x="630" y="114.2764">控制新增按钮的显示</text><rect fill="#E2E2F0" height="30.2969" rx="2.5" ry="2.5" style="stroke:#181818;stroke-width:0.5;" width="140" x="623" y="1858.3594"/><text fill="#000000" font-family="sans-serif" font-size="14" lengthAdjust="spacing" textLength="126" x="630" y="1878.3545">控制新增按钮的显示</text><rect fill="#E2E2F0" height="30.2969" rx="2.5" ry="2.5" style="stroke:#181818;stroke-width:0.5;" width="98" x="773" y="94.2813"/><text fill="#000000" font-family="sans-serif" font-size="14" lengthAdjust="spacing" textLength="84" x="780" y="114.2764">表单内容校验</text><rect fill="#E2E2F0" height="30.2969" rx="2.5" ry="2.5" style="stroke:#181818;stroke-width:0.5;" width="98" x="773" y="1858.3594"/><text fill="#000000" font-family="sans-serif" font-size="14" lengthAdjust="spacing" textLength="84" x="780" y="1878.3545">表单内容校验</text><rect fill="#E2E2F0" height="30.2969" rx="2.5" ry="2.5" style="stroke:#181818;stroke-width:0.5;" width="126" x="881" y="94.2813"/><text fill="#000000" font-family="sans-serif" font-size="14" lengthAdjust="spacing" textLength="112" x="888" y="114.2764">联动修改字段数据</text><rect fill="#E2E2F0" height="30.2969" rx="2.5" ry="2.5" style="stroke:#181818;stroke-width:0.5;" width="126" x="881" y="1858.3594"/><text fill="#000000" font-family="sans-serif" font-size="14" lengthAdjust="spacing" textLength="112" x="888" y="1878.3545">联动修改字段数据</text><rect fill="#E2E2F0" height="30.2969" rx="2.5" ry="2.5" style="stroke:#181818;stroke-width:0.5;" width="140" x="1018" y="94.2813"/><text fill="#000000" font-family="sans-serif" font-size="14" lengthAdjust="spacing" textLength="126" x="1025" y="114.2764">表单内预览公告内容</text><rect fill="#E2E2F0" height="30.2969" rx="2.5" ry="2.5" style="stroke:#181818;stroke-width:0.5;" width="140" x="1018" y="1858.3594"/><text fill="#000000" font-family="sans-serif" font-size="14" lengthAdjust="spacing" textLength="126" x="1025" y="1878.3545">表单内预览公告内容</text><rect fill="#E2E2F0" height="30.2969" rx="2.5" ry="2.5" style="stroke:#181818;stroke-width:0.5;" width="70" x="1168" y="94.2813"/><text fill="#000000" font-family="sans-serif" font-size="14" lengthAdjust="spacing" textLength="56" x="1175" y="114.2764">数据保存</text><rect fill="#E2E2F0" height="30.2969" rx="2.5" ry="2.5" style="stroke:#181818;stroke-width:0.5;" width="70" x="1168" y="1858.3594"/><text fill="#000000" font-family="sans-serif" font-size="14" lengthAdjust="spacing" textLength="56" x="1175" y="1878.3545">数据保存</text><rect fill="#E2E2F0" height="30.2969" rx="2.5" ry="2.5" style="stroke:#181818;stroke-width:0.5;" width="104" x="1292" y="94.2813"/><text fill="#000000" font-family="sans-serif" font-size="14" lengthAdjust="spacing" textLength="90" x="1299" y="114.2764">JAVA增强规则</text><rect fill="#E2E2F0" height="30.2969" rx="2.5" ry="2.5" style="stroke:#181818;stroke-width:0.5;" width="104" x="1292" y="1858.3594"/><text fill="#000000" font-family="sans-serif" font-size="14" lengthAdjust="spacing" textLength="90" x="1299" y="1878.3545">JAVA增强规则</text><rect fill="#E2E2F0" height="30.2969" rx="2.5" ry="2.5" style="stroke:#181818;stroke-width:0.5;" width="84" x="1423" y="94.2813"/><text fill="#000000" font-family="sans-serif" font-size="14" lengthAdjust="spacing" textLength="70" x="1430" y="114.2764">流程监听器</text><rect fill="#E2E2F0" height="30.2969" rx="2.5" ry="2.5" style="stroke:#181818;stroke-width:0.5;" width="84" x="1423" y="1858.3594"/><text fill="#000000" font-family="sans-serif" font-size="14" lengthAdjust="spacing" textLength="70" x="1430" y="1878.3545">流程监听器</text><line style="stroke:#181818;stroke-width:1.0;" x1="22" x2="64" y1="171.8438" y2="171.8438"/><line style="stroke:#181818;stroke-width:1.0;" x1="64" x2="64" y1="171.8438" y2="184.8438"/><line style="stroke:#181818;stroke-width:1.0;" x1="23" x2="64" y1="184.8438" y2="184.8438"/><polygon fill="#181818" points="33,180.8438,23,184.8438,33,188.8438,29,184.8438" style="stroke:#181818;stroke-width:1.0;"/><text fill="#000000" font-family="sans-serif" font-size="13" lengthAdjust="spacing" textLength="82" x="29" y="151.645">点击交易公告/</text><text fill="#000000" font-family="sans-serif" font-size="13" lengthAdjust="spacing" textLength="78" x="29" y="166.7778">变更公告菜单</text><polygon fill="#181818" points="178,209.9766,188,213.9766,178,217.9766,182,213.9766" style="stroke:#181818;stroke-width:1.0;"/><line style="stroke:#181818;stroke-width:1.0;" x1="22" x2="184" y1="213.9766" y2="213.9766"/><text fill="#000000" font-family="sans-serif" font-size="13" lengthAdjust="spacing" textLength="78" x="29" y="208.9106">进入列表页面</text><polygon fill="#181818" points="681,239.1094,691,243.1094,681,247.1094,685,243.1094" style="stroke:#181818;stroke-width:1.0;"/><line style="stroke:#181818;stroke-width:1.0;" x1="190" x2="687" y1="243.1094" y2="243.1094"/><text fill="#000000" font-family="sans-serif" font-size="13" lengthAdjust="spacing" textLength="62" x="197" y="238.0435">执行js增强</text><path d="M532,256.1094 L532,281.1094 L853,281.1094 L853,266.1094 L843,256.1094 L532,256.1094 " fill="#FEFFDD" style="stroke:#181818;stroke-width:0.5;"/><path d="M843,256.1094 L843,266.1094 L853,266.1094 L843,256.1094 " fill="#FEFFDD" style="stroke:#181818;stroke-width:0.5;"/><text fill="#000000" font-family="sans-serif" font-size="13" lengthAdjust="spacing" textLength="300" x="538" y="273.1763">根据参数，判断表格页面“新增挂牌信息”的显示状态</text><line style="stroke:#181818;stroke-width:1.0;" x1="693" x2="735" y1="292.2422" y2="292.2422"/><line style="stroke:#181818;stroke-width:1.0;" x1="735" x2="735" y1="292.2422" y2="305.2422"/><line style="stroke:#181818;stroke-width:1.0;" x1="694" x2="735" y1="305.2422" y2="305.2422"/><polygon fill="#181818" points="704,301.2422,694,305.2422,704,309.2422,700,305.2422" style="stroke:#181818;stroke-width:1.0;"/><polygon fill="#181818" points="201,315.2422,191,319.2422,201,323.2422,197,319.2422" style="stroke:#181818;stroke-width:1.0;"/><line style="stroke:#181818;stroke-width:1.0;stroke-dasharray:2.0,2.0;" x1="195" x2="692" y1="319.2422" y2="319.2422"/><polygon fill="#181818" points="33,344.375,23,348.375,33,352.375,29,348.375" style="stroke:#181818;stroke-width:1.0;"/><line style="stroke:#181818;stroke-width:1.0;stroke-dasharray:2.0,2.0;" x1="27" x2="189" y1="348.375" y2="348.375"/><text fill="#000000" font-family="sans-serif" font-size="13" lengthAdjust="spacing" textLength="104" x="39" y="343.3091">展示公告列表页面</text><path d="M27,361.375 L27,386.375 L231,386.375 L231,371.375 L221,361.375 L27,361.375 " fill="#FEFFDD" style="stroke:#181818;stroke-width:0.5;"/><path d="M221,361.375 L221,371.375 L231,371.375 L221,361.375 " fill="#FEFFDD" style="stroke:#181818;stroke-width:0.5;"/><text fill="#000000" font-family="sans-serif" font-size="13" lengthAdjust="spacing" textLength="183" x="33" y="378.4419">如果“新增挂牌信息”按钮可操作</text><polygon fill="#181818" points="178,408.6406,188,412.6406,178,416.6406,182,412.6406" style="stroke:#181818;stroke-width:1.0;"/><line style="stroke:#181818;stroke-width:1.0;" x1="22" x2="184" y1="412.6406" y2="412.6406"/><text fill="#000000" font-family="sans-serif" font-size="13" lengthAdjust="spacing" textLength="144" x="29" y="407.5747">点击“新增挂牌信息”按钮</text><polygon fill="#181818" points="444,437.7734,454,441.7734,444,445.7734,448,441.7734" style="stroke:#181818;stroke-width:1.0;"/><line style="stroke:#181818;stroke-width:1.0;" x1="190" x2="450" y1="441.7734" y2="441.7734"/><text fill="#000000" font-family="sans-serif" font-size="13" lengthAdjust="spacing" textLength="62" x="197" y="436.7075">执行js增强</text><path d="M367,454.7734 L367,509.7734 L544,509.7734 L544,464.7734 L534,454.7734 L367,454.7734 " fill="#FEFFDD" style="stroke:#181818;stroke-width:0.5;"/><path d="M534,454.7734 L534,464.7734 L544,464.7734 L534,454.7734 " fill="#FEFFDD" style="stroke:#181818;stroke-width:0.5;"/><text fill="#000000" font-family="sans-serif" font-size="13" lengthAdjust="spacing" textLength="130" x="373" y="471.8403">判断项目是否正常状态</text><text fill="#000000" font-family="sans-serif" font-size="13" lengthAdjust="spacing" textLength="156" x="373" y="486.9731">判断是否存在处理中的公告</text><text fill="#000000" font-family="sans-serif" font-size="13" lengthAdjust="spacing" textLength="143" x="373" y="502.106">获取项目和历史公告数据</text><line style="stroke:#181818;stroke-width:1.0;" x1="456" x2="498" y1="521.1719" y2="521.1719"/><line style="stroke:#181818;stroke-width:1.0;" x1="498" x2="498" y1="521.1719" y2="534.1719"/><line style="stroke:#181818;stroke-width:1.0;" x1="457" x2="498" y1="534.1719" y2="534.1719"/><polygon fill="#181818" points="467,530.1719,457,534.1719,467,538.1719,463,534.1719" style="stroke:#181818;stroke-width:1.0;"/><polygon fill="#181818" points="281,559.3047,271,563.3047,281,567.3047,277,563.3047" style="stroke:#181818;stroke-width:1.0;"/><line style="stroke:#181818;stroke-width:1.0;" x1="275" x2="455" y1="563.3047" y2="563.3047"/><text fill="#000000" font-family="sans-serif" font-size="13" lengthAdjust="spacing" textLength="78" x="287" y="558.2388">进入表单页面</text><path d="M275,576.3047 L275,601.3047 L543,601.3047 L543,586.3047 L533,576.3047 L275,576.3047 " fill="#FEFFDD" style="stroke:#181818;stroke-width:0.5;"/><path d="M533,576.3047 L533,586.3047 L543,586.3047 L533,576.3047 " fill="#FEFFDD" style="stroke:#181818;stroke-width:0.5;"/><text fill="#000000" font-family="sans-serif" font-size="13" lengthAdjust="spacing" textLength="247" x="281" y="593.3716">如果是变更公告，则同时填充历史公告数据</text><line style="stroke:#181818;stroke-width:1.0;" x1="270" x2="312" y1="627.5703" y2="627.5703"/><line style="stroke:#181818;stroke-width:1.0;" x1="312" x2="312" y1="627.5703" y2="640.5703"/><line style="stroke:#181818;stroke-width:1.0;" x1="271" x2="312" y1="640.5703" y2="640.5703"/><polygon fill="#181818" points="281,636.5703,271,640.5703,281,644.5703,277,640.5703" style="stroke:#181818;stroke-width:1.0;"/><text fill="#000000" font-family="sans-serif" font-size="13" lengthAdjust="spacing" textLength="78" x="277" y="622.5044">填充项目数据</text><polygon fill="#181818" points="33,650.5703,23,654.5703,33,658.5703,29,654.5703" style="stroke:#181818;stroke-width:1.0;"/><line style="stroke:#181818;stroke-width:1.0;stroke-dasharray:2.0,2.0;" x1="27" x2="269" y1="654.5703" y2="654.5703"/><polygon fill="#181818" points="258,679.7031,268,683.7031,258,687.7031,262,683.7031" style="stroke:#181818;stroke-width:1.0;"/><line style="stroke:#181818;stroke-width:1.0;" x1="22" x2="264" y1="683.7031" y2="683.7031"/><text fill="#000000" font-family="sans-serif" font-size="13" lengthAdjust="spacing" textLength="104" x="29" y="678.6372">修改公告开始时间</text><polygon fill="#181818" points="932,708.8359,942,712.8359,932,716.8359,936,712.8359" style="stroke:#181818;stroke-width:1.0;"/><line style="stroke:#181818;stroke-width:1.0;" x1="270" x2="938" y1="712.8359" y2="712.8359"/><text fill="#000000" font-family="sans-serif" font-size="13" lengthAdjust="spacing" textLength="62" x="277" y="707.77">执行js增强</text><path d="M842,725.8359 L842,750.8359 L1045,750.8359 L1045,735.8359 L1035,725.8359 L842,725.8359 " fill="#FEFFDD" style="stroke:#181818;stroke-width:0.5;"/><path d="M1035,725.8359 L1035,735.8359 L1045,735.8359 L1035,725.8359 " fill="#FEFFDD" style="stroke:#181818;stroke-width:0.5;"/><text fill="#000000" font-family="sans-serif" font-size="13" lengthAdjust="spacing" textLength="182" x="848" y="742.9028">期限类型分为：自然日、工作日</text><line style="stroke:#181818;stroke-width:1.0;" x1="944" x2="986" y1="777.1016" y2="777.1016"/><line style="stroke:#181818;stroke-width:1.0;" x1="986" x2="986" y1="777.1016" y2="790.1016"/><line style="stroke:#181818;stroke-width:1.0;" x1="945" x2="986" y1="790.1016" y2="790.1016"/><polygon fill="#181818" points="955,786.1016,945,790.1016,955,794.1016,951,790.1016" style="stroke:#181818;stroke-width:1.0;"/><text fill="#000000" font-family="sans-serif" font-size="13" lengthAdjust="spacing" textLength="130" x="951" y="772.0356">通过后台计算结束时间</text><polygon fill="#181818" points="281,815.2344,271,819.2344,281,823.2344,277,819.2344" style="stroke:#181818;stroke-width:1.0;"/><line style="stroke:#181818;stroke-width:1.0;stroke-dasharray:2.0,2.0;" x1="275" x2="943" y1="819.2344" y2="819.2344"/><text fill="#000000" font-family="sans-serif" font-size="13" lengthAdjust="spacing" textLength="390" x="287" y="814.1685">自动填充公告结束时间、报名开始、结束时间、保证金缴纳截止时间</text><polygon fill="#181818" points="33,829.2344,23,833.2344,33,837.2344,29,833.2344" style="stroke:#181818;stroke-width:1.0;"/><line style="stroke:#181818;stroke-width:1.0;stroke-dasharray:2.0,2.0;" x1="27" x2="269" y1="833.2344" y2="833.2344"/><polygon fill="#181818" points="258,858.3672,268,862.3672,258,866.3672,262,862.3672" style="stroke:#181818;stroke-width:1.0;"/><line style="stroke:#181818;stroke-width:1.0;" x1="22" x2="264" y1="862.3672" y2="862.3672"/><text fill="#000000" font-family="sans-serif" font-size="13" lengthAdjust="spacing" textLength="66" x="29" y="857.3013">点击“保存”</text><polygon fill="#181818" points="810,887.5,820,891.5,810,895.5,814,891.5" style="stroke:#181818;stroke-width:1.0;"/><line style="stroke:#181818;stroke-width:1.0;" x1="270" x2="816" y1="891.5" y2="891.5"/><text fill="#000000" font-family="sans-serif" font-size="13" lengthAdjust="spacing" textLength="62" x="277" y="886.4341">执行js增强</text><line style="stroke:#181818;stroke-width:1.0;" x1="822" x2="864" y1="920.6328" y2="920.6328"/><line style="stroke:#181818;stroke-width:1.0;" x1="864" x2="864" y1="920.6328" y2="933.6328"/><line style="stroke:#181818;stroke-width:1.0;" x1="823" x2="864" y1="933.6328" y2="933.6328"/><polygon fill="#181818" points="833,929.6328,823,933.6328,833,937.6328,829,933.6328" style="stroke:#181818;stroke-width:1.0;"/><text fill="#000000" font-family="sans-serif" font-size="13" lengthAdjust="spacing" textLength="65" x="829" y="915.5669">校验必填项</text><polygon fill="#181818" points="281,943.6328,271,947.6328,281,951.6328,277,947.6328" style="stroke:#181818;stroke-width:1.0;"/><line style="stroke:#181818;stroke-width:1.0;stroke-dasharray:2.0,2.0;" x1="275" x2="821" y1="947.6328" y2="947.6328"/><polygon fill="#181818" points="1191,972.7656,1201,976.7656,1191,980.7656,1195,976.7656" style="stroke:#181818;stroke-width:1.0;"/><line style="stroke:#181818;stroke-width:1.0;" x1="270" x2="1197" y1="976.7656" y2="976.7656"/><text fill="#000000" font-family="sans-serif" font-size="13" lengthAdjust="spacing" textLength="78" x="277" y="971.6997">提交数据保存</text><line style="stroke:#181818;stroke-width:1.0;" x1="1203" x2="1245" y1="1005.8984" y2="1005.8984"/><line style="stroke:#181818;stroke-width:1.0;" x1="1245" x2="1245" y1="1005.8984" y2="1018.8984"/><line style="stroke:#181818;stroke-width:1.0;" x1="1204" x2="1245" y1="1018.8984" y2="1018.8984"/><polygon fill="#181818" points="1214,1014.8984,1204,1018.8984,1214,1022.8984,1210,1018.8984" style="stroke:#181818;stroke-width:1.0;"/><text fill="#000000" font-family="sans-serif" font-size="13" lengthAdjust="spacing" textLength="52" x="1210" y="1000.8325">保存数据</text><path d="M1212,1031.8984 L1212,1056.8984 L1476,1056.8984 L1476,1041.8984 L1466,1031.8984 L1212,1031.8984 " fill="#FEFFDD" style="stroke:#181818;stroke-width:0.5;"/><path d="M1466,1031.8984 L1466,1041.8984 L1476,1041.8984 L1466,1031.8984 " fill="#FEFFDD" style="stroke:#181818;stroke-width:0.5;"/><text fill="#000000" font-family="sans-serif" font-size="13" lengthAdjust="spacing" textLength="243" x="1218" y="1048.9653">规则：szqyzlLeasePlanExecuteService</text><polygon fill="#181818" points="1332,1079.1641,1342,1083.1641,1332,1087.1641,1336,1083.1641" style="stroke:#181818;stroke-width:1.0;"/><line style="stroke:#181818;stroke-width:1.0;" x1="1203" x2="1338" y1="1083.1641" y2="1083.1641"/><text fill="#000000" font-family="sans-serif" font-size="13" lengthAdjust="spacing" textLength="117" x="1210" y="1078.0981">触发保存后执行规则</text><path d="M1185,1096.1641 L1185,1121.1641 L1502,1121.1641 L1502,1106.1641 L1492,1096.1641 L1185,1096.1641 " fill="#FEFFDD" style="stroke:#181818;stroke-width:0.5;"/><path d="M1492,1096.1641 L1492,1106.1641 L1502,1106.1641 L1492,1096.1641 " fill="#FEFFDD" style="stroke:#181818;stroke-width:0.5;"/><text fill="#000000" font-family="sans-serif" font-size="13" lengthAdjust="spacing" textLength="296" x="1191" y="1113.231">方法：SzqyzlNoticeGenerateService#generate</text><line style="stroke:#181818;stroke-width:1.0;" x1="1344" x2="1386" y1="1147.4297" y2="1147.4297"/><line style="stroke:#181818;stroke-width:1.0;" x1="1386" x2="1386" y1="1147.4297" y2="1160.4297"/><line style="stroke:#181818;stroke-width:1.0;" x1="1345" x2="1386" y1="1160.4297" y2="1160.4297"/><polygon fill="#181818" points="1355,1156.4297,1345,1160.4297,1355,1164.4297,1351,1160.4297" style="stroke:#181818;stroke-width:1.0;"/><text fill="#000000" font-family="sans-serif" font-size="13" lengthAdjust="spacing" textLength="107" x="1351" y="1142.3638">生成公告html文本</text><polygon fill="#181818" points="281,1170.4297,271,1174.4297,281,1178.4297,277,1174.4297" style="stroke:#181818;stroke-width:1.0;"/><line style="stroke:#181818;stroke-width:1.0;stroke-dasharray:2.0,2.0;" x1="275" x2="1343" y1="1174.4297" y2="1174.4297"/><polygon fill="#181818" points="33,1184.4297,23,1188.4297,33,1192.4297,29,1188.4297" style="stroke:#181818;stroke-width:1.0;"/><line style="stroke:#181818;stroke-width:1.0;stroke-dasharray:2.0,2.0;" x1="27" x2="269" y1="1188.4297" y2="1188.4297"/><polygon fill="#181818" points="258,1213.5625,268,1217.5625,258,1221.5625,262,1217.5625" style="stroke:#181818;stroke-width:1.0;"/><line style="stroke:#181818;stroke-width:1.0;" x1="22" x2="264" y1="1217.5625" y2="1217.5625"/><text fill="#000000" font-family="sans-serif" font-size="13" lengthAdjust="spacing" textLength="118" x="29" y="1212.4966">点击“公告预览”按钮</text><polygon fill="#181818" points="1076,1242.6953,1086,1246.6953,1076,1250.6953,1080,1246.6953" style="stroke:#181818;stroke-width:1.0;"/><line style="stroke:#181818;stroke-width:1.0;" x1="270" x2="1082" y1="1246.6953" y2="1246.6953"/><text fill="#000000" font-family="sans-serif" font-size="13" lengthAdjust="spacing" textLength="62" x="277" y="1241.6294">执行js增强</text><path d="M999,1259.6953 L999,1284.6953 L1176,1284.6953 L1176,1269.6953 L1166,1259.6953 L999,1259.6953 " fill="#FEFFDD" style="stroke:#181818;stroke-width:0.5;"/><path d="M1166,1259.6953 L1166,1269.6953 L1176,1269.6953 L1166,1259.6953 " fill="#FEFFDD" style="stroke:#181818;stroke-width:0.5;"/><text fill="#000000" font-family="sans-serif" font-size="13" lengthAdjust="spacing" textLength="156" x="1005" y="1276.7622">如果未保存，则提示先保存</text><line style="stroke:#181818;stroke-width:1.0;" x1="1088" x2="1130" y1="1310.9609" y2="1310.9609"/><line style="stroke:#181818;stroke-width:1.0;" x1="1130" x2="1130" y1="1310.9609" y2="1323.9609"/><line style="stroke:#181818;stroke-width:1.0;" x1="1089" x2="1130" y1="1323.9609" y2="1323.9609"/><polygon fill="#181818" points="1099,1319.9609,1089,1323.9609,1099,1327.9609,1095,1323.9609" style="stroke:#181818;stroke-width:1.0;"/><text fill="#000000" font-family="sans-serif" font-size="13" lengthAdjust="spacing" textLength="78" x="1095" y="1305.895">打开预览页面</text><polygon fill="#181818" points="281,1333.9609,271,1337.9609,281,1341.9609,277,1337.9609" style="stroke:#181818;stroke-width:1.0;"/><line style="stroke:#181818;stroke-width:1.0;stroke-dasharray:2.0,2.0;" x1="275" x2="1087" y1="1337.9609" y2="1337.9609"/><polygon fill="#181818" points="33,1347.9609,23,1351.9609,33,1355.9609,29,1351.9609" style="stroke:#181818;stroke-width:1.0;"/><line style="stroke:#181818;stroke-width:1.0;stroke-dasharray:2.0,2.0;" x1="27" x2="269" y1="1351.9609" y2="1351.9609"/><polygon fill="#181818" points="258,1377.0938,268,1381.0938,258,1385.0938,262,1381.0938" style="stroke:#181818;stroke-width:1.0;"/><line style="stroke:#181818;stroke-width:1.0;" x1="22" x2="264" y1="1381.0938" y2="1381.0938"/><text fill="#000000" font-family="sans-serif" font-size="13" lengthAdjust="spacing" textLength="118" x="29" y="1376.0278">点击“提交流程”按钮</text><polygon fill="#181818" points="552,1406.2266,562,1410.2266,552,1414.2266,556,1410.2266" style="stroke:#181818;stroke-width:1.0;"/><line style="stroke:#181818;stroke-width:1.0;" x1="270" x2="558" y1="1410.2266" y2="1410.2266"/><text fill="#000000" font-family="sans-serif" font-size="13" lengthAdjust="spacing" textLength="62" x="277" y="1405.1606">执行js增强</text><path d="M475,1423.2266 L475,1448.2266 L652,1448.2266 L652,1433.2266 L642,1423.2266 L475,1423.2266 " fill="#FEFFDD" style="stroke:#181818;stroke-width:0.5;"/><path d="M642,1423.2266 L642,1433.2266 L652,1433.2266 L642,1423.2266 " fill="#FEFFDD" style="stroke:#181818;stroke-width:0.5;"/><text fill="#000000" font-family="sans-serif" font-size="13" lengthAdjust="spacing" textLength="156" x="481" y="1440.2935">如果未保存，则提示先保存</text><line style="stroke:#181818;stroke-width:1.0;" x1="564" x2="606" y1="1474.4922" y2="1474.4922"/><line style="stroke:#181818;stroke-width:1.0;" x1="606" x2="606" y1="1474.4922" y2="1487.4922"/><line style="stroke:#181818;stroke-width:1.0;" x1="565" x2="606" y1="1487.4922" y2="1487.4922"/><polygon fill="#181818" points="575,1483.4922,565,1487.4922,575,1491.4922,571,1487.4922" style="stroke:#181818;stroke-width:1.0;"/><text fill="#000000" font-family="sans-serif" font-size="13" lengthAdjust="spacing" textLength="52" x="571" y="1469.4263">发起流程</text><polygon fill="#181818" points="1453,1512.625,1463,1516.625,1453,1520.625,1457,1516.625" style="stroke:#181818;stroke-width:1.0;"/><line style="stroke:#181818;stroke-width:1.0;" x1="564" x2="1459" y1="1516.625" y2="1516.625"/><text fill="#000000" font-family="sans-serif" font-size="13" lengthAdjust="spacing" textLength="130" x="571" y="1511.5591">流程提交，触发监听器</text><path d="M1333,1529.625 L1333,1584.625 L1596,1584.625 L1596,1539.625 L1586,1529.625 L1333,1529.625 " fill="#FEFFDD" style="stroke:#181818;stroke-width:0.5;"/><path d="M1586,1529.625 L1586,1539.625 L1596,1539.625 L1586,1529.625 " fill="#FEFFDD" style="stroke:#181818;stroke-width:0.5;"/><text fill="#000000" font-family="sans-serif" font-size="13" lengthAdjust="spacing" textLength="242" x="1339" y="1546.6919">监听器：LeasePlanFlowSubmitListener</text><text fill="#000000" font-family="sans-serif" font-size="13" lengthAdjust="spacing" textLength="78" x="1339" y="1561.8247">更新驱动状态</text><text fill="#000000" font-family="sans-serif" font-size="13" lengthAdjust="spacing" textLength="143" x="1339" y="1576.9575">公告类型注入流程上下文</text><line style="stroke:#181818;stroke-width:1.0;" x1="1465" x2="1507" y1="1596.0234" y2="1596.0234"/><line style="stroke:#181818;stroke-width:1.0;" x1="1507" x2="1507" y1="1596.0234" y2="1609.0234"/><line style="stroke:#181818;stroke-width:1.0;" x1="1466" x2="1507" y1="1609.0234" y2="1609.0234"/><polygon fill="#181818" points="1476,1605.0234,1466,1609.0234,1476,1613.0234,1472,1609.0234" style="stroke:#181818;stroke-width:1.0;"/><polygon fill="#181818" points="281,1619.0234,271,1623.0234,281,1627.0234,277,1623.0234" style="stroke:#181818;stroke-width:1.0;"/><line style="stroke:#181818;stroke-width:1.0;stroke-dasharray:2.0,2.0;" x1="275" x2="1464" y1="1623.0234" y2="1623.0234"/><polygon fill="#181818" points="33,1633.0234,23,1637.0234,33,1641.0234,29,1637.0234" style="stroke:#181818;stroke-width:1.0;"/><line style="stroke:#181818;stroke-width:1.0;stroke-dasharray:2.0,2.0;" x1="27" x2="269" y1="1637.0234" y2="1637.0234"/><text fill="#000000" font-family="sans-serif" font-size="11" lengthAdjust="spacing" textLength="182" x="652.5" y="1669.2339">省  略  流  程  中  间  流  转  说  明</text><polygon fill="#181818" points="350,1702.9609,360,1706.9609,350,1710.9609,354,1706.9609" style="stroke:#181818;stroke-width:1.0;"/><line style="stroke:#181818;stroke-width:1.0;" x1="22" x2="356" y1="1706.9609" y2="1706.9609"/><text fill="#000000" font-family="sans-serif" font-size="13" lengthAdjust="spacing" textLength="78" x="29" y="1701.895">最后审批通过</text><polygon fill="#181818" points="1453,1732.0938,1463,1736.0938,1453,1740.0938,1457,1736.0938" style="stroke:#181818;stroke-width:1.0;"/><line style="stroke:#181818;stroke-width:1.0;" x1="362" x2="1459" y1="1736.0938" y2="1736.0938"/><text fill="#000000" font-family="sans-serif" font-size="13" lengthAdjust="spacing" textLength="156" x="369" y="1731.0278">审批结果提交，触发监听器</text><path d="M1337,1749.0938 L1337,1789.0938 L1592,1789.0938 L1592,1759.0938 L1582,1749.0938 L1337,1749.0938 " fill="#FEFFDD" style="stroke:#181818;stroke-width:0.5;"/><path d="M1582,1749.0938 L1582,1759.0938 L1592,1759.0938 L1582,1749.0938 " fill="#FEFFDD" style="stroke:#181818;stroke-width:0.5;"/><text fill="#000000" font-family="sans-serif" font-size="13" lengthAdjust="spacing" textLength="221" x="1343" y="1766.1606">监听器：LeasePlanFlowEndListener</text><text fill="#000000" font-family="sans-serif" font-size="13" lengthAdjust="spacing" textLength="234" x="1343" y="1781.2935">处理数据的回写、推送公告到门户等业务</text><line style="stroke:#181818;stroke-width:1.0;" x1="1465" x2="1507" y1="1800.3594" y2="1800.3594"/><line style="stroke:#181818;stroke-width:1.0;" x1="1507" x2="1507" y1="1800.3594" y2="1813.3594"/><line style="stroke:#181818;stroke-width:1.0;" x1="1466" x2="1507" y1="1813.3594" y2="1813.3594"/><polygon fill="#181818" points="1476,1809.3594,1466,1813.3594,1476,1817.3594,1472,1813.3594" style="stroke:#181818;stroke-width:1.0;"/><polygon fill="#181818" points="281,1823.3594,271,1827.3594,281,1831.3594,277,1827.3594" style="stroke:#181818;stroke-width:1.0;"/><line style="stroke:#181818;stroke-width:1.0;stroke-dasharray:2.0,2.0;" x1="275" x2="1464" y1="1827.3594" y2="1827.3594"/><polygon fill="#181818" points="33,1837.3594,23,1841.3594,33,1845.3594,29,1841.3594" style="stroke:#181818;stroke-width:1.0;"/><line style="stroke:#181818;stroke-width:1.0;stroke-dasharray:2.0,2.0;" x1="27" x2="269" y1="1841.3594" y2="1841.3594"/><!--MD5=[efae6a216f5c8b45905668e4320cfa23]
@startuml
hide unlinked
skinparam shadowing false

title <size:20>招租公告新增-详细处理逻辑

actor 用户 as user

box 前端页面
participant 表格页面 as ui_list
participant 表单页面 as ui_form
participant 流程页面 as ui_flow
end box

box js编程
participant 新增挂牌信息 as add
participant 表单提交流程 as form_submit
participant 控制新增按钮的显示 as add_enable
participant 表单内容校验 as form_verify
participant 联动修改字段数据 as date_link
participant 表单内预览公告内容 as form_show
end box


box 后端服务
participant 数据保存 as save
participant JAVA增强规则 as rule
participant 流程监听器 as listener

end box


user->user:点击交易公告/\n变更公告菜单
user->ui_list:进入列表页面
ui_list->add_enable:执行js增强
note over add_enable:根据参数，判断表格页面“新增挂牌信息”的显示状态
add_enable->add_enable: 
add_enable- ->ui_list:
ui_list- ->user:展示公告列表页面
note right of user:如果“新增挂牌信息”按钮可操作
user->ui_list:点击“新增挂牌信息”按钮
ui_list->add:执行js增强
note over add: 判断项目是否正常状态\n判断是否存在处理中的公告\n获取项目和历史公告数据
add->add:
add->ui_form:进入表单页面
note right of ui_form:如果是变更公告，则同时填充历史公告数据
ui_form->ui_form:填充项目数据
ui_form- ->user:

user->ui_form:修改公告开始时间
ui_form->date_link:执行js增强
note over date_link:期限类型分为：自然日、工作日
date_link->date_link:通过后台计算结束时间

date_link- ->ui_form: 自动填充公告结束时间、报名开始、结束时间、保证金缴纳截止时间
ui_form- ->user:

user->ui_form:点击“保存”
ui_form->form_verify:执行js增强
form_verify->form_verify:校验必填项
form_verify- ->ui_form:
ui_form->save:提交数据保存
  save->save:保存数据
  note over rule:规则：szqyzlLeasePlanExecuteService
  save->rule:触发保存后执行规则
  note over rule:方法：SzqyzlNoticeGenerateService#generate
  rule->rule:生成公告html文本
  rule- ->ui_form:
ui_form- ->user:

user->ui_form:点击“公告预览”按钮
ui_form->form_show:执行js增强
note over form_show:如果未保存，则提示先保存
form_show->form_show:打开预览页面
form_show- ->ui_form:
ui_form- ->user:

user->ui_form:点击“提交流程”按钮
ui_form->form_submit:执行js增强
note over form_submit:如果未保存，则提示先保存
form_submit->form_submit:发起流程
form_submit->listener:流程提交，触发监听器
note over listener:监听器：LeasePlanFlowSubmitListener\n更新驱动状态\n公告类型注入流程上下文
listener->listener: 
listener- ->ui_form:
ui_form- ->user:

... 省  略  流  程  中  间  流  转  说  明 ...

user->ui_flow:最后审批通过
ui_flow->listener:审批结果提交，触发监听器
note over listener:监听器：LeasePlanFlowEndListener\n处理数据的回写、推送公告到门户等业务
listener->listener: 
listener- ->ui_form:
ui_form- ->user:
@enduml

PlantUML version 1.2022.2beta8(Unknown compile time)
(GPL source distribution)
Java Runtime: Java(TM) SE Runtime Environment
JVM: Java HotSpot(TM) 64-Bit Server VM
Default Encoding: UTF-8
Language: en
Country: US
--></g></svg>